<mxfile host="app.diagrams.net" modified="2023-10-12T00:30:17.811Z" agent="Mozilla/5.0 (Windows NT 10.0; Win64; x64) AppleWebKit/537.36 (KHTML, like Gecko) Chrome/117.0.0.0 Safari/537.36" etag="s5fCVBKXlG1389f7c0dC" version="22.0.4" type="github">
  <diagram name="Page-1" id="5f0bae14-7c28-e335-631c-24af17079c00">
    <mxGraphModel dx="1050" dy="534" grid="1" gridSize="10" guides="1" tooltips="1" connect="1" arrows="1" fold="1" page="1" pageScale="1" pageWidth="1100" pageHeight="850" background="none" math="0" shadow="0">
      <root>
        <mxCell id="0" />
        <mxCell id="1" parent="0" />
        <mxCell id="lpX2XApsvJclECuOutFU-6" value="&lt;p style=&quot;margin:0px;margin-top:6px;text-align:center;&quot;&gt;&lt;b&gt;&amp;lt;&amp;lt;component&amp;gt;&amp;gt;&lt;/b&gt;&lt;/p&gt;&lt;p style=&quot;margin:0px;margin-top:6px;text-align:center;&quot;&gt;&lt;b&gt;Medical Professional Profile&lt;/b&gt;&lt;/p&gt;&lt;hr&gt;&lt;p style=&quot;margin:0px;margin-left:8px;&quot;&gt;+&lt;br&gt;&lt;/p&gt;" style="align=left;overflow=fill;html=1;dropTarget=0;whiteSpace=wrap;" vertex="1" parent="1">
          <mxGeometry x="260" y="40" width="510" height="490" as="geometry" />
        </mxCell>
        <mxCell id="lpX2XApsvJclECuOutFU-7" value="" style="shape=component;jettyWidth=8;jettyHeight=4;" vertex="1" parent="lpX2XApsvJclECuOutFU-6">
          <mxGeometry x="1" width="20" height="20" relative="1" as="geometry">
            <mxPoint x="-24" y="4" as="offset" />
          </mxGeometry>
        </mxCell>
        <mxCell id="lpX2XApsvJclECuOutFU-12" value="" style="rounded=0;orthogonalLoop=1;jettySize=auto;html=1;endArrow=halfCircle;endFill=0;endSize=6;strokeWidth=1;sketch=0;fontSize=12;curved=1;exitX=1;exitY=0.25;exitDx=0;exitDy=0;" edge="1" parent="1" source="lpX2XApsvJclECuOutFU-6">
          <mxGeometry relative="1" as="geometry">
            <mxPoint x="870" y="250" as="sourcePoint" />
            <mxPoint x="870" y="163" as="targetPoint" />
          </mxGeometry>
        </mxCell>
        <mxCell id="lpX2XApsvJclECuOutFU-14" value="PatientProfile" style="edgeLabel;html=1;align=center;verticalAlign=middle;resizable=0;points=[];" vertex="1" connectable="0" parent="lpX2XApsvJclECuOutFU-12">
          <mxGeometry x="0.5684" y="-4" relative="1" as="geometry">
            <mxPoint y="-22" as="offset" />
          </mxGeometry>
        </mxCell>
        <mxCell id="lpX2XApsvJclECuOutFU-13" value="" style="ellipse;whiteSpace=wrap;html=1;align=center;aspect=fixed;fillColor=none;strokeColor=none;resizable=0;perimeter=centerPerimeter;rotatable=0;allowArrows=0;points=[];outlineConnect=1;" vertex="1" parent="1">
          <mxGeometry x="538" y="270" width="10" height="10" as="geometry" />
        </mxCell>
        <mxCell id="lpX2XApsvJclECuOutFU-15" value="" style="whiteSpace=wrap;html=1;aspect=fixed;" vertex="1" parent="1">
          <mxGeometry x="763" y="155" width="14" height="14" as="geometry" />
        </mxCell>
        <mxCell id="lpX2XApsvJclECuOutFU-22" style="edgeStyle=orthogonalEdgeStyle;rounded=0;orthogonalLoop=1;jettySize=auto;html=1;entryX=0;entryY=0.5;entryDx=0;entryDy=0;exitX=0.12;exitY=0.52;exitDx=0;exitDy=0;exitPerimeter=0;" edge="1" parent="1" source="lpX2XApsvJclECuOutFU-27" target="lpX2XApsvJclECuOutFU-15">
          <mxGeometry relative="1" as="geometry">
            <mxPoint x="730" y="150" as="sourcePoint" />
          </mxGeometry>
        </mxCell>
        <mxCell id="lpX2XApsvJclECuOutFU-20" value="«component»&lt;br&gt;&lt;b&gt;PatientHistory&lt;/b&gt;" style="html=1;dropTarget=0;whiteSpace=wrap;" vertex="1" parent="1">
          <mxGeometry x="548" y="110" width="140" height="70" as="geometry" />
        </mxCell>
        <mxCell id="lpX2XApsvJclECuOutFU-21" value="" style="shape=module;jettyWidth=8;jettyHeight=4;" vertex="1" parent="lpX2XApsvJclECuOutFU-20">
          <mxGeometry x="1" width="20" height="20" relative="1" as="geometry">
            <mxPoint x="-27" y="7" as="offset" />
          </mxGeometry>
        </mxCell>
        <mxCell id="lpX2XApsvJclECuOutFU-26" value="" style="rounded=0;orthogonalLoop=1;jettySize=auto;html=1;endArrow=halfCircle;endFill=0;endSize=6;strokeWidth=1;sketch=0;fontSize=12;curved=1;exitX=1;exitY=0.5;exitDx=0;exitDy=0;" edge="1" target="lpX2XApsvJclECuOutFU-27" parent="1" source="lpX2XApsvJclECuOutFU-20">
          <mxGeometry relative="1" as="geometry">
            <mxPoint x="625" y="275" as="sourcePoint" />
          </mxGeometry>
        </mxCell>
        <mxCell id="lpX2XApsvJclECuOutFU-27" value="" style="ellipse;whiteSpace=wrap;html=1;align=center;aspect=fixed;fillColor=none;strokeColor=none;resizable=0;perimeter=centerPerimeter;rotatable=0;allowArrows=0;points=[];outlineConnect=1;" vertex="1" parent="1">
          <mxGeometry x="720" y="140" width="10" height="10" as="geometry" />
        </mxCell>
        <mxCell id="lpX2XApsvJclECuOutFU-28" value="«component»&lt;br&gt;&lt;b&gt;Profile&lt;/b&gt;" style="html=1;dropTarget=0;whiteSpace=wrap;" vertex="1" parent="1">
          <mxGeometry x="460" y="210" width="140" height="70" as="geometry" />
        </mxCell>
        <mxCell id="lpX2XApsvJclECuOutFU-29" value="" style="shape=module;jettyWidth=8;jettyHeight=4;" vertex="1" parent="lpX2XApsvJclECuOutFU-28">
          <mxGeometry x="1" width="20" height="20" relative="1" as="geometry">
            <mxPoint x="-27" y="7" as="offset" />
          </mxGeometry>
        </mxCell>
        <mxCell id="lpX2XApsvJclECuOutFU-46" style="edgeStyle=orthogonalEdgeStyle;rounded=0;orthogonalLoop=1;jettySize=auto;html=1;entryX=0;entryY=0.25;entryDx=0;entryDy=0;" edge="1" parent="1" target="lpX2XApsvJclECuOutFU-43">
          <mxGeometry relative="1" as="geometry">
            <mxPoint x="920" y="359.5" as="targetPoint" />
            <mxPoint x="720" y="360" as="sourcePoint" />
            <Array as="points">
              <mxPoint x="742" y="360" />
              <mxPoint x="742" y="404" />
            </Array>
          </mxGeometry>
        </mxCell>
        <mxCell id="lpX2XApsvJclECuOutFU-30" value="«component»&lt;br&gt;&lt;b&gt;Notifications&lt;/b&gt;" style="html=1;dropTarget=0;whiteSpace=wrap;" vertex="1" parent="1">
          <mxGeometry x="560" y="330" width="140" height="70" as="geometry" />
        </mxCell>
        <mxCell id="lpX2XApsvJclECuOutFU-31" value="" style="shape=module;jettyWidth=8;jettyHeight=4;" vertex="1" parent="lpX2XApsvJclECuOutFU-30">
          <mxGeometry x="1" width="20" height="20" relative="1" as="geometry">
            <mxPoint x="-27" y="7" as="offset" />
          </mxGeometry>
        </mxCell>
        <mxCell id="lpX2XApsvJclECuOutFU-32" value="«component»&lt;br&gt;&lt;b&gt;FormManager&lt;/b&gt;" style="html=1;dropTarget=0;whiteSpace=wrap;" vertex="1" parent="1">
          <mxGeometry x="350" y="330" width="140" height="70" as="geometry" />
        </mxCell>
        <mxCell id="lpX2XApsvJclECuOutFU-33" value="" style="shape=module;jettyWidth=8;jettyHeight=4;" vertex="1" parent="lpX2XApsvJclECuOutFU-32">
          <mxGeometry x="1" width="20" height="20" relative="1" as="geometry">
            <mxPoint x="-27" y="7" as="offset" />
          </mxGeometry>
        </mxCell>
        <mxCell id="lpX2XApsvJclECuOutFU-34" value="" style="rounded=0;orthogonalLoop=1;jettySize=auto;html=1;endArrow=halfCircle;endFill=0;endSize=6;strokeWidth=1;sketch=0;exitX=1;exitY=0.5;exitDx=0;exitDy=0;" edge="1" target="lpX2XApsvJclECuOutFU-36" parent="1" source="lpX2XApsvJclECuOutFU-28">
          <mxGeometry relative="1" as="geometry">
            <mxPoint x="670" y="295" as="sourcePoint" />
          </mxGeometry>
        </mxCell>
        <mxCell id="lpX2XApsvJclECuOutFU-35" value="" style="rounded=0;orthogonalLoop=1;jettySize=auto;html=1;endArrow=oval;endFill=0;sketch=0;sourcePerimeterSpacing=0;targetPerimeterSpacing=0;endSize=10;exitX=0.5;exitY=0;exitDx=0;exitDy=0;" edge="1" target="lpX2XApsvJclECuOutFU-36" parent="1" source="lpX2XApsvJclECuOutFU-30">
          <mxGeometry relative="1" as="geometry">
            <mxPoint x="630" y="295" as="sourcePoint" />
          </mxGeometry>
        </mxCell>
        <mxCell id="lpX2XApsvJclECuOutFU-36" value="" style="ellipse;whiteSpace=wrap;html=1;align=center;aspect=fixed;fillColor=none;strokeColor=none;resizable=0;perimeter=centerPerimeter;rotatable=0;allowArrows=0;points=[];outlineConnect=1;" vertex="1" parent="1">
          <mxGeometry x="625" y="240" width="10" height="10" as="geometry" />
        </mxCell>
        <mxCell id="lpX2XApsvJclECuOutFU-37" value="" style="rounded=0;orthogonalLoop=1;jettySize=auto;html=1;endArrow=halfCircle;endFill=0;endSize=6;strokeWidth=1;sketch=0;exitX=0;exitY=0.5;exitDx=0;exitDy=0;" edge="1" parent="1" source="lpX2XApsvJclECuOutFU-30">
          <mxGeometry relative="1" as="geometry">
            <mxPoint x="560" y="365" as="sourcePoint" />
            <mxPoint x="525" y="365" as="targetPoint" />
          </mxGeometry>
        </mxCell>
        <mxCell id="lpX2XApsvJclECuOutFU-40" value="" style="rounded=0;orthogonalLoop=1;jettySize=auto;html=1;endArrow=halfCircle;endFill=0;endSize=6;strokeWidth=1;sketch=0;fontSize=12;curved=1;exitX=1;exitY=0.75;exitDx=0;exitDy=0;" edge="1" parent="1" source="lpX2XApsvJclECuOutFU-6">
          <mxGeometry relative="1" as="geometry">
            <mxPoint x="875" y="335" as="sourcePoint" />
            <mxPoint x="860" y="408" as="targetPoint" />
          </mxGeometry>
        </mxCell>
        <mxCell id="lpX2XApsvJclECuOutFU-42" value="ScheduleAppointments" style="edgeLabel;html=1;align=center;verticalAlign=middle;resizable=0;points=[];" vertex="1" connectable="0" parent="lpX2XApsvJclECuOutFU-40">
          <mxGeometry x="0.4534" y="-1" relative="1" as="geometry">
            <mxPoint y="-20" as="offset" />
          </mxGeometry>
        </mxCell>
        <mxCell id="lpX2XApsvJclECuOutFU-41" value="" style="ellipse;whiteSpace=wrap;html=1;align=center;aspect=fixed;fillColor=none;strokeColor=none;resizable=0;perimeter=centerPerimeter;rotatable=0;allowArrows=0;points=[];outlineConnect=1;" vertex="1" parent="1">
          <mxGeometry x="850" y="330" width="10" height="10" as="geometry" />
        </mxCell>
        <mxCell id="lpX2XApsvJclECuOutFU-43" value="" style="whiteSpace=wrap;html=1;aspect=fixed;" vertex="1" parent="1">
          <mxGeometry x="763" y="400" width="14" height="14" as="geometry" />
        </mxCell>
        <mxCell id="lpX2XApsvJclECuOutFU-44" value="" style="rounded=0;orthogonalLoop=1;jettySize=auto;html=1;endArrow=halfCircle;endFill=0;endSize=6;strokeWidth=1;sketch=0;fontSize=12;curved=1;exitX=1;exitY=0.5;exitDx=0;exitDy=0;" edge="1" parent="1" source="lpX2XApsvJclECuOutFU-30">
          <mxGeometry relative="1" as="geometry">
            <mxPoint x="693" y="445" as="sourcePoint" />
            <mxPoint x="720" y="360" as="targetPoint" />
          </mxGeometry>
        </mxCell>
        <mxCell id="lpX2XApsvJclECuOutFU-45" value="" style="ellipse;whiteSpace=wrap;html=1;align=center;aspect=fixed;fillColor=none;strokeColor=none;resizable=0;perimeter=centerPerimeter;rotatable=0;allowArrows=0;points=[];outlineConnect=1;" vertex="1" parent="1">
          <mxGeometry x="668" y="440" width="10" height="10" as="geometry" />
        </mxCell>
        <mxCell id="lpX2XApsvJclECuOutFU-47" value="" style="rounded=0;orthogonalLoop=1;jettySize=auto;html=1;endArrow=oval;endFill=0;sketch=0;sourcePerimeterSpacing=0;targetPerimeterSpacing=0;endSize=10;exitX=1;exitY=0.5;exitDx=0;exitDy=0;" edge="1" parent="1" source="lpX2XApsvJclECuOutFU-32">
          <mxGeometry relative="1" as="geometry">
            <mxPoint x="500" y="355" as="sourcePoint" />
            <mxPoint x="525" y="365" as="targetPoint" />
          </mxGeometry>
        </mxCell>
        <mxCell id="lpX2XApsvJclECuOutFU-48" value="«component»&lt;br&gt;&lt;b&gt;Availability&lt;/b&gt;" style="html=1;dropTarget=0;whiteSpace=wrap;" vertex="1" parent="1">
          <mxGeometry x="350" y="125.5" width="140" height="70" as="geometry" />
        </mxCell>
        <mxCell id="lpX2XApsvJclECuOutFU-49" value="" style="shape=module;jettyWidth=8;jettyHeight=4;" vertex="1" parent="lpX2XApsvJclECuOutFU-48">
          <mxGeometry x="1" width="20" height="20" relative="1" as="geometry">
            <mxPoint x="-27" y="7" as="offset" />
          </mxGeometry>
        </mxCell>
        <mxCell id="lpX2XApsvJclECuOutFU-60" style="edgeStyle=orthogonalEdgeStyle;rounded=0;orthogonalLoop=1;jettySize=auto;html=1;" edge="1" parent="1" source="lpX2XApsvJclECuOutFU-51">
          <mxGeometry relative="1" as="geometry">
            <mxPoint x="310" y="160.5" as="targetPoint" />
          </mxGeometry>
        </mxCell>
        <mxCell id="lpX2XApsvJclECuOutFU-51" value="" style="html=1;rounded=0;" vertex="1" parent="1">
          <mxGeometry x="253" y="153" width="15" height="15" as="geometry" />
        </mxCell>
        <mxCell id="lpX2XApsvJclECuOutFU-52" value="" style="endArrow=none;html=1;rounded=0;align=center;verticalAlign=top;endFill=0;labelBackgroundColor=none;endSize=2;" edge="1" source="lpX2XApsvJclECuOutFU-51" target="lpX2XApsvJclECuOutFU-53" parent="1">
          <mxGeometry relative="1" as="geometry" />
        </mxCell>
        <mxCell id="lpX2XApsvJclECuOutFU-53" value="Availability" style="ellipse;html=1;fontSize=11;align=center;fillColor=none;points=[];aspect=fixed;resizable=0;verticalAlign=bottom;labelPosition=center;verticalLabelPosition=top;flipH=1;" vertex="1" parent="1">
          <mxGeometry x="210" y="156.5" width="8" height="8" as="geometry" />
        </mxCell>
        <mxCell id="lpX2XApsvJclECuOutFU-58" value="" style="html=1;verticalAlign=bottom;labelBackgroundColor=none;endArrow=oval;endFill=0;endSize=8;rounded=0;exitX=0;exitY=0.5;exitDx=0;exitDy=0;" edge="1" parent="1" source="lpX2XApsvJclECuOutFU-48">
          <mxGeometry width="160" relative="1" as="geometry">
            <mxPoint x="120" y="240" as="sourcePoint" />
            <mxPoint x="310" y="161" as="targetPoint" />
          </mxGeometry>
        </mxCell>
        <mxCell id="lpX2XApsvJclECuOutFU-59" value="Availability" style="edgeLabel;html=1;align=center;verticalAlign=middle;resizable=0;points=[];" vertex="1" connectable="0" parent="lpX2XApsvJclECuOutFU-58">
          <mxGeometry x="0.4305" y="1" relative="1" as="geometry">
            <mxPoint x="-2" y="-15" as="offset" />
          </mxGeometry>
        </mxCell>
        <mxCell id="lpX2XApsvJclECuOutFU-61" value="SendForm" style="text;strokeColor=none;align=center;fillColor=none;html=1;verticalAlign=middle;whiteSpace=wrap;rounded=0;" vertex="1" parent="1">
          <mxGeometry x="496" y="336" width="60" height="19" as="geometry" />
        </mxCell>
        <mxCell id="lpX2XApsvJclECuOutFU-63" value="DisplayNotifications" style="text;strokeColor=none;align=center;fillColor=none;html=1;verticalAlign=middle;whiteSpace=wrap;rounded=0;" vertex="1" parent="1">
          <mxGeometry x="603" y="218" width="112" height="19" as="geometry" />
        </mxCell>
      </root>
    </mxGraphModel>
  </diagram>
</mxfile>
